<svg width="300" height="266" viewBox="0 0 300 266" fill="none" xmlns="http://www.w3.org/2000/svg">
<path d="M205.5 116C238.361 116 265 142.639 265 175.5C265 208.361 238.361 235 205.5 235C172.639 235 146 208.361 146 175.5C146 142.639 172.639 116 205.5 116ZM205.5 214.287C226.921 214.287 244.287 196.921 244.287 175.5C244.287 154.079 226.921 136.713 205.5 136.713C184.079 136.713 166.713 154.079 166.713 175.5C166.713 196.921 184.079 214.287 205.5 214.287Z" fill="white"/>
<rect x="132.639" y="146.361" width="131.522" height="17.9675" transform="rotate(-135 132.639 146.361)" fill="white"/>
<rect x="40.1476" y="133.148" width="131.522" height="17.9675" transform="rotate(-45 40.1476 133.148)" fill="white"/>
</svg>
