<?xml version="1.0" standalone="no"?>
<!DOCTYPE svg PUBLIC "-//W3C//DTD SVG 20010904//EN"
 "http://www.w3.org/TR/2001/REC-SVG-20010904/DTD/svg10.dtd">
<svg version="1.0" xmlns="http://www.w3.org/2000/svg"
 width="600.000000pt" height="600.000000pt" viewBox="0 0 600.000000 600.000000"
 preserveAspectRatio="xMidYMid meet">
<metadata>
Created by potrace 1.14, written by Peter Selinger 2001-2017
</metadata>
<g transform="translate(0.000000,600.000000) scale(0.100000,-0.100000)"
fill="#000000" stroke="none">
<path d="M2256 4451 l-406 -406 -398 398 c-218 218 -400 397 -405 397 -9 0
-247 -238 -247 -247 0 -5 179 -187 397 -405 l398 -398 -393 -393 c-215 -215
-392 -396 -392 -400 0 -10 237 -247 247 -247 4 0 185 177 400 392 l393 393
403 -401 402 -401 123 123 c67 68 122 127 122 131 0 5 -179 187 -397 405
l-398 398 403 403 c221 221 402 406 402 410 0 4 -56 63 -124 131 l-124 123
-406 -406z"/>
<path d="M3944 3331 c-3 -3 -9 -6 -12 -6 -86 -7 -249 -58 -358 -113 -207 -105
-388 -277 -501 -479 -21 -37 -38 -70 -39 -73 0 -3 -10 -26 -22 -52 -61 -137
-90 -297 -87 -480 3 -150 4 -157 35 -280 39 -152 120 -315 220 -442 21 -27
173 -179 192 -191 152 -103 302 -185 340 -185 8 0 18 -4 23 -9 6 -5 24 -12 40
-15 17 -3 48 -10 70 -16 49 -12 106 -21 165 -25 25 -2 47 -4 50 -5 3 -1 9 -2
13 -1 5 1 52 3 105 5 110 5 245 32 345 70 63 24 206 93 217 106 3 3 31 23 64
45 243 165 435 476 483 781 9 60 9 305 0 359 -4 22 -9 56 -13 75 -9 52 -63
208 -91 265 -27 54 -93 167 -102 175 -4 3 -19 23 -35 45 -51 69 -185 193 -271
250 -45 30 -86 55 -90 55 -5 0 -16 6 -24 14 -38 32 -245 102 -362 122 -46 8
-347 12 -355 5z m313 -420 c136 -25 265 -91 371 -187 161 -146 251 -342 256
-559 9 -385 -280 -728 -659 -781 -244 -35 -478 41 -648 210 -90 89 -108 112
-149 189 -63 119 -96 255 -92 387 11 477 449 829 921 741z"/>
</g>
</svg>
